<svg width="202" height="50" viewBox="0 0 202 50" fill="none" xmlns="http://www.w3.org/2000/svg">
<path d="M55.2126 37C54.4042 37 54 36.5426 54 35.6278V16.2216C54 15.3068 54.4042 14.8494 55.2126 14.8494C55.6264 14.8494 56.0306 15.1217 56.4251 15.6662L68.0311 32.5895H67.4249V16.2216C67.4249 15.3068 67.829 14.8494 68.6374 14.8494C69.4458 14.8494 69.85 15.3068 69.85 16.2216V35.6278C69.85 36.5426 69.4458 37 68.6374 37C68.2044 37 67.8002 36.7277 67.4249 36.1832L55.8189 19.2599H56.4251V35.6278C56.4251 36.5426 56.0209 37 55.2126 37Z" fill="black"/>
<path d="M77.5826 29.8452V30.6293C77.5826 32.0341 77.8087 32.9924 78.261 33.5043C78.7134 34.0052 79.565 34.2557 80.8161 34.2557H83.1835C84.1651 34.2557 84.8917 34.1522 85.3632 33.9453C85.8348 33.7384 86.1475 33.3736 86.3015 32.8509C86.4074 32.437 86.5517 32.1212 86.7346 31.9034C86.9271 31.6856 87.2158 31.5767 87.6007 31.5767C88.0049 31.5767 88.3128 31.6965 88.5246 31.9361C88.7363 32.1757 88.8036 32.5241 88.7267 32.9815C88.5149 34.3319 87.9472 35.3393 87.0233 36.0036C86.0994 36.6679 84.8195 37 83.1835 37H80.8161C78.901 37 77.4767 36.4773 76.5432 35.4318C75.6194 34.3864 75.1575 32.7855 75.1575 30.6293V26.8395C75.1575 24.6288 75.6194 23.0062 76.5432 21.9716C77.4767 20.9261 78.901 20.4143 80.8161 20.4361H83.1835C85.1082 20.4361 86.5325 20.9588 87.4564 22.0043C88.3802 23.0388 88.8421 24.6506 88.8421 26.8395V28.473C88.8421 29.3878 88.438 29.8452 87.6296 29.8452H77.5826ZM80.8161 23.1804C79.565 23.1586 78.7134 23.4036 78.261 23.9155C77.8087 24.4273 77.5826 25.402 77.5826 26.8395V27.1009H86.417V26.8395C86.417 25.4129 86.1909 24.4491 85.7385 23.9482C85.2959 23.4363 84.4442 23.1804 83.1835 23.1804H80.8161Z" fill="black"/>
<path d="M96.9334 37C96.2982 37 95.8748 36.6297 95.6631 35.8892L91.65 22.233C91.3998 21.4053 91.6597 20.839 92.4295 20.5341C93.1898 20.2401 93.6999 20.5341 93.9597 21.4162L97.2221 32.4098H97.0344L100.109 21.4162C100.321 20.6974 100.783 20.3381 101.495 20.3381C102.169 20.3381 102.602 20.7192 102.794 21.4815L105.667 32.2955H105.551L108.886 21.3835C109.165 20.5014 109.685 20.2183 110.445 20.5341C111.205 20.839 111.446 21.4271 111.167 22.2983L106.778 35.8892C106.538 36.6297 106.085 37 105.421 37C104.738 37 104.295 36.6188 104.093 35.8565L101.12 24.6179H101.437L98.2037 35.8892C98.1074 36.2486 97.9487 36.5263 97.7273 36.7223C97.506 36.9074 97.2413 37 96.9334 37Z" fill="black"/>
<path d="M120.996 37C120.188 37 119.784 36.5426 119.784 35.6278V28.9631L113.172 17.0384C112.768 16.2543 112.893 15.6117 113.548 15.1108C114.241 14.6316 114.799 14.7732 115.222 15.5355L120.996 26.0227L127.059 15.5355C127.261 15.1761 127.507 14.9638 127.795 14.8984C128.084 14.8222 128.387 14.9148 128.705 15.1761C129.407 15.6662 129.532 16.2869 129.08 17.0384L122.209 28.9631V35.6278C122.209 36.5426 121.805 37 120.996 37Z" fill="#FF52BA"/>
<path d="M135.118 37C133.203 37 131.778 36.4773 130.845 35.4318C129.921 34.3864 129.459 32.7855 129.459 30.6293V26.8395C129.459 24.6506 129.921 23.0388 130.845 22.0043C131.778 20.9588 133.203 20.4361 135.118 20.4361H137.485C139.41 20.4361 140.834 20.9588 141.758 22.0043C142.682 23.0497 143.144 24.6615 143.144 26.8395V30.5966C143.144 32.7637 142.682 34.3755 141.758 35.4318C140.834 36.4773 139.41 37 137.485 37H135.118ZM131.884 30.6293C131.884 32.0341 132.11 32.9924 132.563 33.5043C133.015 34.0052 133.867 34.2557 135.118 34.2557H137.485C138.746 34.2557 139.598 33.9998 140.04 33.4879C140.492 32.9761 140.719 32.0123 140.719 30.5966V26.8395C140.719 25.4129 140.492 24.4491 140.04 23.9482C139.598 23.4363 138.746 23.1804 137.485 23.1804H135.118C134.28 23.1804 133.626 23.2893 133.155 23.5071C132.693 23.714 132.365 24.0843 132.173 24.6179C131.98 25.1406 131.884 25.8812 131.884 26.8395V30.6293Z" fill="#FF52BA"/>
<path d="M149.662 37C148.854 37 148.45 36.5426 148.45 35.6278V21.8082C148.45 20.8935 148.854 20.4361 149.662 20.4361C150.471 20.4361 150.875 20.8935 150.875 21.8082V23.0824C151.443 22.2112 152.165 21.5523 153.04 21.1058C153.926 20.6593 154.936 20.4361 156.072 20.4361C156.88 20.4361 157.284 20.8935 157.284 21.8082C157.284 22.723 156.88 23.1804 156.072 23.1804C154.407 23.1804 153.137 23.5289 152.261 24.2259C151.385 24.9228 150.923 25.843 150.875 26.9865V35.6278C150.875 36.5426 150.471 37 149.662 37Z" fill="#FF52BA"/>
<path d="M161.983 37C161.175 37 160.771 36.5426 160.771 35.6278V15.3722C160.771 14.4574 161.175 14 161.983 14C162.792 14 163.196 14.4574 163.196 15.3722V27.6399L170.067 20.9588C170.683 20.3598 171.251 20.4034 171.77 21.0895C172.3 21.7865 172.261 22.429 171.655 23.017L166.386 28.1626L171.424 34.6477C171.963 35.3556 171.934 35.9981 171.337 36.5753C170.721 37.1742 170.144 37.1307 169.605 36.4446L164.538 29.9759L163.196 31.2827V35.6278C163.196 36.5426 162.792 37 161.983 37Z" fill="#FF52BA"/>
<path d="M176.6 29.8452V30.6293C176.6 32.0341 176.826 32.9924 177.278 33.5043C177.731 34.0052 178.582 34.2557 179.833 34.2557H182.201C183.182 34.2557 183.909 34.1522 184.381 33.9453C184.852 33.7384 185.165 33.3736 185.319 32.8509C185.425 32.437 185.569 32.1212 185.752 31.9034C185.944 31.6856 186.233 31.5767 186.618 31.5767C187.022 31.5767 187.33 31.6965 187.542 31.9361C187.754 32.1757 187.821 32.5241 187.744 32.9815C187.532 34.3319 186.964 35.3393 186.041 36.0036C185.117 36.6679 183.837 37 182.201 37H179.833C177.918 37 176.494 36.4773 175.561 35.4318C174.637 34.3864 174.175 32.7855 174.175 30.6293V26.8395C174.175 24.6288 174.637 23.0062 175.561 21.9716C176.494 20.9261 177.918 20.4143 179.833 20.4361H182.201C184.126 20.4361 185.55 20.9588 186.474 22.0043C187.398 23.0388 187.859 24.6506 187.859 26.8395V28.473C187.859 29.3878 187.455 29.8452 186.647 29.8452H176.6ZM179.833 23.1804C178.582 23.1586 177.731 23.4036 177.278 23.9155C176.826 24.4273 176.6 25.402 176.6 26.8395V27.1009H185.434V26.8395C185.434 25.4129 185.208 24.4491 184.756 23.9482C184.313 23.4363 183.462 23.1804 182.201 23.1804H179.833Z" fill="#FF52BA"/>
<path d="M194.378 37C193.57 37 193.166 36.5426 193.166 35.6278V21.8082C193.166 20.8935 193.57 20.4361 194.378 20.4361C195.187 20.4361 195.591 20.8935 195.591 21.8082V23.0824C196.158 22.2112 196.88 21.5523 197.756 21.1058C198.641 20.6593 199.652 20.4361 200.787 20.4361C201.596 20.4361 202 20.8935 202 21.8082C202 22.723 201.596 23.1804 200.787 23.1804C199.123 23.1804 197.852 23.5289 196.976 24.2259C196.101 24.9228 195.639 25.843 195.591 26.9865V35.6278C195.591 36.5426 195.187 37 194.378 37Z" fill="#FF52BA"/>
<rect width="50" height="50" rx="25" fill="white"/>
<path fill-rule="evenodd" clip-rule="evenodd" d="M25.0023 33.269C26.3302 33.269 27.5859 32.9602 28.7012 32.4106H28.4745V21.5704C28.4745 20.2298 28.4745 19.5602 28.0676 19.1437C27.6606 18.7271 27.0065 18.7271 25.6968 18.7271H24.3079C22.9982 18.7271 22.344 18.7271 21.9371 19.1437C21.5301 19.5602 21.5301 20.2298 21.5301 21.5704V32.4106H21.3034C22.4188 32.9602 23.6744 33.269 25.0023 33.269ZM23.0926 25.6577C23.0926 25.5163 23.1475 25.3807 23.2452 25.2807C23.3428 25.1808 23.4753 25.1246 23.6134 25.1246H26.3912C26.5293 25.1246 26.6618 25.1808 26.7595 25.2807C26.8571 25.3807 26.912 25.5163 26.912 25.6577C26.912 25.7991 26.8571 25.9347 26.7595 26.0347C26.6618 26.1347 26.5293 26.1908 26.3912 26.1908H23.6134C23.4753 26.1908 23.3428 26.1347 23.2452 26.0347C23.1475 25.9347 23.0926 25.7991 23.0926 25.6577ZM23.0926 27.7902C23.0926 27.6488 23.1475 27.5132 23.2452 27.4132C23.3428 27.3133 23.4753 27.2571 23.6134 27.2571H26.3912C26.5293 27.2571 26.6618 27.3133 26.7595 27.4132C26.8571 27.5132 26.912 27.6488 26.912 27.7902C26.912 27.9316 26.8571 28.0672 26.7595 28.1672C26.6618 28.2672 26.5293 28.3233 26.3912 28.3233H23.6134C23.4753 28.3233 23.3428 28.2672 23.2452 28.1672C23.1475 28.0672 23.0926 27.9316 23.0926 27.7902ZM25.0023 30.2781C25.1404 30.2781 25.2729 30.3343 25.3706 30.4343C25.4683 30.5342 25.5231 30.6699 25.5231 30.8112V32.4106H24.4815V30.8112C24.4815 30.6699 24.5364 30.5342 24.634 30.4343C24.7317 30.3343 24.8642 30.2781 25.0023 30.2781ZM23.0926 21.7481C23.0926 21.6068 23.1475 21.4712 23.2452 21.3712C23.3428 21.2712 23.4753 21.215 23.6134 21.215H26.3912C26.5293 21.215 26.6618 21.2712 26.7595 21.3712C26.8571 21.4712 26.912 21.6068 26.912 21.7481C26.912 21.8895 26.8571 22.0251 26.7595 22.1251C26.6618 22.2251 26.5293 22.2813 26.3912 22.2813H23.6134C23.4753 22.2813 23.3428 22.2251 23.2452 22.1251C23.1475 22.0251 23.0926 21.8895 23.0926 21.7481ZM23.0926 23.8806C23.0926 23.7392 23.1475 23.6036 23.2452 23.5037C23.3428 23.4037 23.4753 23.3475 23.6134 23.3475H26.3912C26.5293 23.3475 26.6618 23.4037 26.7595 23.5037C26.8571 23.6036 26.912 23.7392 26.912 23.8806C26.912 24.022 26.8571 24.1576 26.7595 24.2576C26.6618 24.3576 26.5293 24.4138 26.3912 24.4138H23.6134C23.4753 24.4138 23.3428 24.3576 23.2452 24.2576C23.1475 24.1576 23.0926 24.022 23.0926 23.8806Z" fill="black"/>
<path d="M31.5995 30.0549C31.0179 30.7977 30.3133 31.4398 29.5162 31.9506V27.7902H30.2106C30.3487 27.7902 30.4812 27.734 30.5789 27.6341C30.6766 27.5341 30.7314 27.3985 30.7314 27.2571C30.7314 27.1157 30.6766 26.9801 30.5789 26.8801C30.4812 26.7801 30.3487 26.724 30.2106 26.724H29.5162V25.6577H30.2106C30.3487 25.6577 30.4812 25.6015 30.5789 25.5016C30.6766 25.4016 30.7314 25.266 30.7314 25.1246C30.7314 24.9832 30.6766 24.8476 30.5789 24.7476C30.4812 24.6476 30.3487 24.5915 30.2106 24.5915H29.5162V23.5252H30.2106C30.3487 23.5252 30.4812 23.4691 30.5789 23.3691C30.6766 23.2691 30.7314 23.1335 30.7314 22.9921C30.7314 22.8507 30.6766 22.7151 30.5789 22.6151C30.4812 22.5151 30.3487 22.459 30.2106 22.459H29.5162V21.5072C29.5166 21.2835 29.5157 21.0679 29.5134 20.8603C30.2641 20.8632 30.6759 20.8895 30.9821 21.0992C31.1338 21.2029 31.2641 21.3362 31.3655 21.4915C31.5995 21.8498 31.5995 22.3495 31.5995 23.3475V30.0549Z" fill="black"/>
<path d="M20.4885 31.9506C19.6914 31.4398 18.9867 30.7977 18.4051 30.0549V23.3475C18.4051 22.3495 18.4051 21.8498 18.6392 21.4915C18.7405 21.3362 18.8708 21.2029 19.0225 21.0992C19.3287 20.8895 19.7405 20.8632 20.4912 20.8596C20.4889 21.0681 20.488 21.2837 20.4885 21.5065V22.459H19.794C19.6559 22.459 19.5234 22.5151 19.4257 22.6151C19.3281 22.7151 19.2732 22.8507 19.2732 22.9921C19.2732 23.1335 19.3281 23.2691 19.4257 23.3691C19.5234 23.4691 19.6559 23.5252 19.794 23.5252H20.4885V24.5915H19.794C19.6559 24.5915 19.5234 24.6476 19.4257 24.7476C19.3281 24.8476 19.2732 24.9832 19.2732 25.1246C19.2732 25.266 19.3281 25.4016 19.4257 25.5016C19.5234 25.6015 19.6559 25.6577 19.794 25.6577H20.4885V26.724H19.794C19.6559 26.724 19.5234 26.7801 19.4257 26.8801C19.3281 26.9801 19.2732 27.1157 19.2732 27.2571C19.2732 27.3985 19.3281 27.5341 19.4257 27.6341C19.5234 27.734 19.6559 27.7902 19.794 27.7902H20.4885V31.9506Z" fill="black"/>
<path fill-rule="evenodd" clip-rule="evenodd" d="M40.7323 34.155C42.9883 30.0584 43.7872 24.8358 42.579 20.319C41.3709 15.8022 38.4629 11.9256 34.4618 9.49762C30.4606 7.06969 25.6752 6.27795 21.1036 7.28755C16.5321 8.29714 12.5273 11.0301 9.92479 14.9164C7.32222 18.8027 6.32278 23.5423 7.1349 28.1466C7.94703 32.7508 10.508 36.8642 14.2837 39.6288C18.0594 42.3934 22.7583 43.5958 27.4002 42.985C32.0421 42.3743 36.2687 39.9977 39.1983 36.3509L37.761 35.0027L34.1925 31.4394C35.478 29.6184 36.2329 27.3972 36.2329 25C36.2329 18.8202 31.2158 13.8105 25.0269 13.8105C18.838 13.8105 13.8208 18.8202 13.8208 25C13.8208 31.1798 18.838 36.1895 25.0269 36.1895C28.0184 36.1895 30.7361 35.019 32.7457 33.1117L36.2563 36.6171C33.7625 38.9338 30.4969 40.452 27.1245 40.8957C23.0218 41.4355 18.8688 40.3728 15.5318 37.9294C12.1947 35.486 9.93121 31.8504 9.21343 27.781C8.49564 23.7117 9.37898 19.5227 11.6792 16.0878C13.9794 12.653 17.5189 10.2375 21.5594 9.34521C25.5999 8.4529 29.8294 9.15266 33.3657 11.2985C36.9021 13.4444 39.4722 16.8707 40.54 20.8628C41.6078 24.8549 41.0908 29.1045 39.097 32.7252L40.7323 34.155ZM34.0257 25C34.0257 29.9625 29.9968 33.9855 25.0269 33.9855C20.057 33.9855 16.0281 29.9625 16.0281 25C16.0281 20.0375 20.057 16.0145 25.0269 16.0145C29.9968 16.0145 34.0257 20.0375 34.0257 25Z" fill="#FF52BA"/>
<path fill-rule="evenodd" clip-rule="evenodd" d="M38.3441 32.3106L38.0103 32.9168L40.9703 35.5046L41.4852 34.5696C43.8378 30.2974 44.68 24.8477 43.4093 20.0969C42.1438 15.3658 39.098 11.3056 34.9076 8.76287C30.7173 6.22013 25.7058 5.39104 20.9183 6.44832C16.1308 7.5056 11.9366 10.3678 9.21067 14.4382C6.48477 18.5087 5.43785 23.4731 6.28852 28.2959C7.13919 33.1186 9.82165 37.4269 13.776 40.3223C17.7303 43.2176 22.6512 44.4767 27.5123 43.8371C32.3735 43.1976 36.7999 40.7087 39.8684 36.8891L40.3669 36.2686L38.3588 34.385L35.2966 31.3274C36.4352 29.4882 37.0924 27.3197 37.0924 25C37.0924 18.3444 31.6893 12.9511 25.0269 12.9511C18.3645 12.9511 12.9614 18.3444 12.9614 25C12.9614 31.6556 18.3645 37.0489 25.0269 37.0489C27.9455 37.0489 30.6235 36.0131 32.71 34.2906L34.9986 36.5758C32.7368 38.4385 29.9152 39.6617 27.0124 40.0436C23.1289 40.5545 19.198 39.5486 16.0395 37.236C12.8811 34.9233 10.7391 31.4826 10.0598 27.6317C9.38057 23.7809 10.2164 19.8167 12.3933 16.5661C14.5702 13.3154 17.9202 11.0291 21.7447 10.1844C25.5693 9.33981 29.5727 10.0022 32.9199 12.0333C36.267 14.0644 38.6992 17.3071 39.7097 21.0849C40.7202 24.8626 40.231 28.8841 38.3441 32.3106ZM34.1925 31.4394L37.761 35.0027L39.1983 36.3509C36.2687 39.9977 32.0421 42.3743 27.4002 42.985C22.7583 43.5958 18.0594 42.3934 14.2837 39.6288C10.508 36.8642 7.94703 32.7508 7.1349 28.1466C6.32278 23.5423 7.32222 18.8027 9.92479 14.9164C12.5273 11.0301 16.5321 8.29714 21.1036 7.28755C25.6752 6.27795 30.4606 7.06969 34.4618 9.49762C38.4629 11.9256 41.3709 15.8022 42.579 20.319C43.7113 24.552 43.0807 29.4049 41.1402 33.37C41.0101 33.6358 40.8741 33.8976 40.7323 34.155L39.097 32.7252C41.0908 29.1045 41.6078 24.8549 40.54 20.8628C39.4722 16.8707 36.9021 13.4444 33.3657 11.2985C29.8294 9.15266 25.5999 8.4529 21.5594 9.34521C17.5189 10.2375 13.9794 12.653 11.6792 16.0878C9.37898 19.5227 8.49564 23.7117 9.21343 27.781C9.93121 31.8504 12.1947 35.486 15.5318 37.9294C18.8688 40.3728 23.0218 41.4355 27.1245 40.8957C30.2126 40.4894 33.2111 39.1821 35.6096 37.1858C35.8304 37.002 36.0461 36.8124 36.2563 36.6171L32.7457 33.1117C30.7361 35.019 28.0184 36.1895 25.0269 36.1895C18.838 36.1895 13.8208 31.1798 13.8208 25C13.8208 18.8202 18.838 13.8105 25.0269 13.8105C31.2158 13.8105 36.2329 18.8202 36.2329 25C36.2329 27.3972 35.478 29.6184 34.1925 31.4394Z" fill="#FF52BA"/>
<path fill-rule="evenodd" clip-rule="evenodd" d="M25.0023 33.269C26.3302 33.269 27.5859 32.9602 28.7012 32.4106H28.4745V21.5704C28.4745 20.2298 28.4745 19.5602 28.0676 19.1437C27.6606 18.7271 27.0065 18.7271 25.6968 18.7271H24.3079C22.9982 18.7271 22.344 18.7271 21.9371 19.1437C21.5301 19.5602 21.5301 20.2298 21.5301 21.5704V32.4106H21.3034C22.4188 32.9602 23.6744 33.269 25.0023 33.269ZM23.0926 25.6577C23.0926 25.5163 23.1475 25.3807 23.2452 25.2807C23.3428 25.1808 23.4753 25.1246 23.6134 25.1246H26.3912C26.5293 25.1246 26.6618 25.1808 26.7595 25.2807C26.8571 25.3807 26.912 25.5163 26.912 25.6577C26.912 25.7991 26.8571 25.9347 26.7595 26.0347C26.6618 26.1347 26.5293 26.1908 26.3912 26.1908H23.6134C23.4753 26.1908 23.3428 26.1347 23.2452 26.0347C23.1475 25.9347 23.0926 25.7991 23.0926 25.6577ZM23.0926 27.7902C23.0926 27.6488 23.1475 27.5132 23.2452 27.4132C23.3428 27.3133 23.4753 27.2571 23.6134 27.2571H26.3912C26.5293 27.2571 26.6618 27.3133 26.7595 27.4132C26.8571 27.5132 26.912 27.6488 26.912 27.7902C26.912 27.9316 26.8571 28.0672 26.7595 28.1672C26.6618 28.2672 26.5293 28.3233 26.3912 28.3233H23.6134C23.4753 28.3233 23.3428 28.2672 23.2452 28.1672C23.1475 28.0672 23.0926 27.9316 23.0926 27.7902ZM25.0023 30.2781C25.1404 30.2781 25.2729 30.3343 25.3706 30.4343C25.4683 30.5342 25.5231 30.6699 25.5231 30.8112V32.4106H24.4815V30.8112C24.4815 30.6699 24.5364 30.5342 24.634 30.4343C24.7317 30.3343 24.8642 30.2781 25.0023 30.2781ZM23.0926 21.7481C23.0926 21.6068 23.1475 21.4712 23.2452 21.3712C23.3428 21.2712 23.4753 21.215 23.6134 21.215H26.3912C26.5293 21.215 26.6618 21.2712 26.7595 21.3712C26.8571 21.4712 26.912 21.6068 26.912 21.7481C26.912 21.8895 26.8571 22.0251 26.7595 22.1251C26.6618 22.2251 26.5293 22.2813 26.3912 22.2813H23.6134C23.4753 22.2813 23.3428 22.2251 23.2452 22.1251C23.1475 22.0251 23.0926 21.8895 23.0926 21.7481ZM23.0926 23.8806C23.0926 23.7392 23.1475 23.6036 23.2452 23.5037C23.3428 23.4037 23.4753 23.3475 23.6134 23.3475H26.3912C26.5293 23.3475 26.6618 23.4037 26.7595 23.5037C26.8571 23.6036 26.912 23.7392 26.912 23.8806C26.912 24.022 26.8571 24.1576 26.7595 24.2576C26.6618 24.3576 26.5293 24.4138 26.3912 24.4138H23.6134C23.4753 24.4138 23.3428 24.3576 23.2452 24.2576C23.1475 24.1576 23.0926 24.022 23.0926 23.8806Z" fill="black"/>
<path d="M31.5995 30.0549C31.0179 30.7977 30.3133 31.4398 29.5162 31.9506V27.7902H30.2106C30.3487 27.7902 30.4812 27.734 30.5789 27.6341C30.6766 27.5341 30.7314 27.3985 30.7314 27.2571C30.7314 27.1157 30.6766 26.9801 30.5789 26.8801C30.4812 26.7801 30.3487 26.724 30.2106 26.724H29.5162V25.6577H30.2106C30.3487 25.6577 30.4812 25.6015 30.5789 25.5016C30.6766 25.4016 30.7314 25.266 30.7314 25.1246C30.7314 24.9832 30.6766 24.8476 30.5789 24.7476C30.4812 24.6476 30.3487 24.5915 30.2106 24.5915H29.5162V23.5252H30.2106C30.3487 23.5252 30.4812 23.4691 30.5789 23.3691C30.6766 23.2691 30.7314 23.1335 30.7314 22.9921C30.7314 22.8507 30.6766 22.7151 30.5789 22.6151C30.4812 22.5151 30.3487 22.459 30.2106 22.459H29.5162V21.5072C29.5166 21.2835 29.5157 21.0679 29.5134 20.8603C30.2641 20.8632 30.6759 20.8895 30.9821 21.0992C31.1338 21.2029 31.2641 21.3362 31.3655 21.4915C31.5995 21.8498 31.5995 22.3495 31.5995 23.3475V30.0549Z" fill="black"/>
<path d="M20.4885 31.9506C19.6914 31.4398 18.9867 30.7977 18.4051 30.0549V23.3475C18.4051 22.3495 18.4051 21.8498 18.6392 21.4915C18.7405 21.3362 18.8708 21.2029 19.0225 21.0992C19.3287 20.8895 19.7405 20.8632 20.4912 20.8596C20.4889 21.0681 20.488 21.2837 20.4885 21.5065V22.459H19.794C19.6559 22.459 19.5234 22.5151 19.4257 22.6151C19.3281 22.7151 19.2732 22.8507 19.2732 22.9921C19.2732 23.1335 19.3281 23.2691 19.4257 23.3691C19.5234 23.4691 19.6559 23.5252 19.794 23.5252H20.4885V24.5915H19.794C19.6559 24.5915 19.5234 24.6476 19.4257 24.7476C19.3281 24.8476 19.2732 24.9832 19.2732 25.1246C19.2732 25.266 19.3281 25.4016 19.4257 25.5016C19.5234 25.6015 19.6559 25.6577 19.794 25.6577H20.4885V26.724H19.794C19.6559 26.724 19.5234 26.7801 19.4257 26.8801C19.3281 26.9801 19.2732 27.1157 19.2732 27.2571C19.2732 27.3985 19.3281 27.5341 19.4257 27.6341C19.5234 27.734 19.6559 27.7902 19.794 27.7902H20.4885V31.9506Z" fill="black"/>
<path fill-rule="evenodd" clip-rule="evenodd" d="M40.7323 34.155C42.9883 30.0584 43.7872 24.8358 42.579 20.319C41.3709 15.8022 38.4629 11.9256 34.4618 9.49762C30.4606 7.06969 25.6752 6.27795 21.1036 7.28755C16.5321 8.29714 12.5273 11.0301 9.92479 14.9164C7.32222 18.8027 6.32278 23.5423 7.1349 28.1466C7.94703 32.7508 10.508 36.8642 14.2837 39.6288C18.0594 42.3934 22.7583 43.5958 27.4002 42.985C32.0421 42.3743 36.2687 39.9977 39.1983 36.3509L37.761 35.0027L34.1925 31.4394C35.478 29.6184 36.2329 27.3972 36.2329 25C36.2329 18.8202 31.2158 13.8105 25.0269 13.8105C18.838 13.8105 13.8208 18.8202 13.8208 25C13.8208 31.1798 18.838 36.1895 25.0269 36.1895C28.0184 36.1895 30.7361 35.019 32.7457 33.1117L36.2563 36.6171C33.7625 38.9338 30.4969 40.452 27.1245 40.8957C23.0218 41.4355 18.8688 40.3728 15.5318 37.9294C12.1947 35.486 9.93121 31.8504 9.21343 27.781C8.49564 23.7117 9.37898 19.5227 11.6792 16.0878C13.9794 12.653 17.5189 10.2375 21.5594 9.34521C25.5999 8.4529 29.8294 9.15266 33.3657 11.2985C36.9021 13.4444 39.4722 16.8707 40.54 20.8628C41.6078 24.8549 41.0908 29.1045 39.097 32.7252L40.7323 34.155ZM34.0257 25C34.0257 29.9625 29.9968 33.9855 25.0269 33.9855C20.057 33.9855 16.0281 29.9625 16.0281 25C16.0281 20.0375 20.057 16.0145 25.0269 16.0145C29.9968 16.0145 34.0257 20.0375 34.0257 25Z" fill="#FF52BA"/>
<path fill-rule="evenodd" clip-rule="evenodd" d="M38.3441 32.3106L38.0103 32.9168L40.9703 35.5046L41.4852 34.5696C43.8378 30.2974 44.68 24.8477 43.4093 20.0969C42.1438 15.3658 39.098 11.3056 34.9076 8.76287C30.7173 6.22013 25.7058 5.39104 20.9183 6.44832C16.1308 7.5056 11.9366 10.3678 9.21067 14.4382C6.48477 18.5087 5.43785 23.4731 6.28852 28.2959C7.13919 33.1186 9.82165 37.4269 13.776 40.3223C17.7303 43.2176 22.6512 44.4767 27.5123 43.8371C32.3735 43.1976 36.7999 40.7087 39.8684 36.8891L40.3669 36.2686L38.3588 34.385L35.2966 31.3274C36.4352 29.4882 37.0924 27.3197 37.0924 25C37.0924 18.3444 31.6893 12.9511 25.0269 12.9511C18.3645 12.9511 12.9614 18.3444 12.9614 25C12.9614 31.6556 18.3645 37.0489 25.0269 37.0489C27.9455 37.0489 30.6235 36.0131 32.71 34.2906L34.9986 36.5758C32.7368 38.4385 29.9152 39.6617 27.0124 40.0436C23.1289 40.5545 19.198 39.5486 16.0395 37.236C12.8811 34.9233 10.7391 31.4826 10.0598 27.6317C9.38057 23.7809 10.2164 19.8167 12.3933 16.5661C14.5702 13.3154 17.9202 11.0291 21.7447 10.1844C25.5693 9.33981 29.5727 10.0022 32.9199 12.0333C36.267 14.0644 38.6992 17.3071 39.7097 21.0849C40.7202 24.8626 40.231 28.8841 38.3441 32.3106ZM34.1925 31.4394L37.761 35.0027L39.1983 36.3509C36.2687 39.9977 32.0421 42.3743 27.4002 42.985C22.7583 43.5958 18.0594 42.3934 14.2837 39.6288C10.508 36.8642 7.94703 32.7508 7.1349 28.1466C6.32278 23.5423 7.32222 18.8027 9.92479 14.9164C12.5273 11.0301 16.5321 8.29714 21.1036 7.28755C25.6752 6.27795 30.4606 7.06969 34.4618 9.49762C38.4629 11.9256 41.3709 15.8022 42.579 20.319C43.7113 24.552 43.0807 29.4049 41.1402 33.37C41.0101 33.6358 40.8741 33.8976 40.7323 34.155L39.097 32.7252C41.0908 29.1045 41.6078 24.8549 40.54 20.8628C39.4722 16.8707 36.9021 13.4444 33.3657 11.2985C29.8294 9.15266 25.5999 8.4529 21.5594 9.34521C17.5189 10.2375 13.9794 12.653 11.6792 16.0878C9.37898 19.5227 8.49564 23.7117 9.21343 27.781C9.93121 31.8504 12.1947 35.486 15.5318 37.9294C18.8688 40.3728 23.0218 41.4355 27.1245 40.8957C30.2126 40.4894 33.2111 39.1821 35.6096 37.1858C35.8304 37.002 36.0461 36.8124 36.2563 36.6171L32.7457 33.1117C30.7361 35.019 28.0184 36.1895 25.0269 36.1895C18.838 36.1895 13.8208 31.1798 13.8208 25C13.8208 18.8202 18.838 13.8105 25.0269 13.8105C31.2158 13.8105 36.2329 18.8202 36.2329 25C36.2329 27.3972 35.478 29.6184 34.1925 31.4394Z" fill="#FF52BA"/>
</svg>
