<svg width="50" height="50" viewBox="0 0 50 50" fill="none" xmlns="http://www.w3.org/2000/svg">
<rect width="50" height="50" rx="25" fill="white"/>
<path fill-rule="evenodd" clip-rule="evenodd" d="M25.1099 34.7285C26.6549 34.7285 28.1159 34.3691 29.4137 33.7296H29.1499V21.1167C29.1499 19.5569 29.1499 18.7778 28.6764 18.2931C28.2029 17.8084 27.4418 17.8084 25.9179 17.8084H24.3019C22.778 17.8084 22.0168 17.8084 21.5433 18.2931C21.0699 18.7778 21.0699 19.5569 21.0699 21.1167V33.7296H20.8061C22.1038 34.3691 23.5648 34.7285 25.1099 34.7285ZM22.8879 25.8724C22.8879 25.7079 22.9517 25.5501 23.0654 25.4338C23.179 25.3175 23.3331 25.2521 23.4939 25.2521H26.7259C26.8866 25.2521 27.0408 25.3175 27.1544 25.4338C27.268 25.5501 27.3319 25.7079 27.3319 25.8724C27.3319 26.0369 27.268 26.1947 27.1544 26.311C27.0408 26.4274 26.8866 26.4927 26.7259 26.4927H23.4939C23.3331 26.4927 23.179 26.4274 23.0654 26.311C22.9517 26.1947 22.8879 26.0369 22.8879 25.8724ZM22.8879 28.3536C22.8879 28.1891 22.9517 28.0314 23.0654 27.915C23.179 27.7987 23.3331 27.7333 23.4939 27.7333H26.7259C26.8866 27.7333 27.0408 27.7987 27.1544 27.915C27.268 28.0314 27.3319 28.1891 27.3319 28.3536C27.3319 28.5182 27.268 28.6759 27.1544 28.7923C27.0408 28.9086 26.8866 28.974 26.7259 28.974H23.4939C23.3331 28.974 23.179 28.9086 23.0654 28.7923C22.9517 28.6759 22.8879 28.5182 22.8879 28.3536ZM25.1099 31.2484C25.2706 31.2484 25.4247 31.3138 25.5384 31.4301C25.652 31.5464 25.7159 31.7042 25.7159 31.8687V33.7296H24.5039V31.8687C24.5039 31.7042 24.5677 31.5464 24.6814 31.4301C24.795 31.3138 24.9492 31.2484 25.1099 31.2484ZM22.8879 21.3235C22.8879 21.159 22.9517 21.0012 23.0654 20.8849C23.179 20.7685 23.3331 20.7032 23.4939 20.7032H26.7259C26.8866 20.7032 27.0408 20.7685 27.1544 20.8849C27.268 21.0012 27.3319 21.159 27.3319 21.3235C27.3319 21.488 27.268 21.6458 27.1544 21.7621C27.0408 21.8785 26.8866 21.9438 26.7259 21.9438H23.4939C23.3331 21.9438 23.179 21.8785 23.0654 21.7621C22.9517 21.6458 22.8879 21.488 22.8879 21.3235ZM22.8879 23.8047C22.8879 23.6402 22.9517 23.4824 23.0654 23.3661C23.179 23.2498 23.3331 23.1844 23.4939 23.1844H26.7259C26.8866 23.1844 27.0408 23.2498 27.1544 23.3661C27.268 23.4824 27.3319 23.6402 27.3319 23.8047C27.3319 23.9692 27.268 24.127 27.1544 24.2434C27.0408 24.3597 26.8866 24.425 26.7259 24.425H23.4939C23.3331 24.425 23.179 24.3597 23.0654 24.2434C22.9517 24.127 22.8879 23.9692 22.8879 23.8047Z" fill="black"/>
<path d="M32.7859 30.9887C32.1093 31.853 31.2894 32.6001 30.3619 33.1944V28.3536H31.1699C31.3306 28.3536 31.4848 28.2883 31.5984 28.172C31.7121 28.0556 31.7759 27.8979 31.7759 27.7333C31.7759 27.5688 31.7121 27.411 31.5984 27.2947C31.4848 27.1784 31.3306 27.113 31.1699 27.113H30.3619V25.8724H31.1699C31.3306 25.8724 31.4848 25.8071 31.5984 25.6907C31.7121 25.5744 31.7759 25.4166 31.7759 25.2521C31.7759 25.0876 31.7121 24.9298 31.5984 24.8135C31.4848 24.6972 31.3306 24.6318 31.1699 24.6318H30.3619V23.3912H31.1699C31.3306 23.3912 31.4848 23.3258 31.5984 23.2095C31.7121 23.0932 31.7759 22.9354 31.7759 22.7709C31.7759 22.6064 31.7121 22.4486 31.5984 22.3323C31.4848 22.2159 31.3306 22.1506 31.1699 22.1506H30.3619V21.0431C30.3625 20.7829 30.3614 20.532 30.3587 20.2905C31.2321 20.2938 31.7113 20.3244 32.0676 20.5684C32.2441 20.6891 32.3957 20.8442 32.5136 21.0249C32.7859 21.4418 32.7859 22.0232 32.7859 23.1844V30.9887Z" fill="black"/>
<path d="M19.8578 33.1944C18.9304 32.6001 18.1105 31.853 17.4338 30.9887V23.1844C17.4338 22.0232 17.4338 21.4418 17.7061 21.0249C17.8241 20.8442 17.9756 20.6891 18.1521 20.5684C18.5085 20.3244 18.9876 20.2938 19.8611 20.2897C19.8584 20.5323 19.8573 20.7831 19.8578 21.0423V22.1506H19.0498C18.8891 22.1506 18.735 22.2159 18.6213 22.3323C18.5077 22.4486 18.4438 22.6064 18.4438 22.7709C18.4438 22.9354 18.5077 23.0932 18.6213 23.2095C18.735 23.3258 18.8891 23.3912 19.0498 23.3912H19.8578V24.6318H19.0498C18.8891 24.6318 18.735 24.6972 18.6213 24.8135C18.5077 24.9298 18.4438 25.0876 18.4438 25.2521C18.4438 25.4166 18.5077 25.5744 18.6213 25.6907C18.735 25.8071 18.8891 25.8724 19.0498 25.8724H19.8578V27.113H19.0498C18.8891 27.113 18.735 27.1784 18.6213 27.2947C18.5077 27.411 18.4438 27.5688 18.4438 27.7333C18.4438 27.8979 18.5077 28.0556 18.6213 28.172C18.735 28.2883 18.8891 28.3536 19.0498 28.3536H19.8578V33.1944Z" fill="black"/>
<path fill-rule="evenodd" clip-rule="evenodd" d="M43.4123 35.7593C46.0372 30.9927 46.9668 24.9161 45.561 19.6606C44.1553 14.4052 40.7718 9.89459 36.1163 7.0696C31.4608 4.24462 25.8928 3.3234 20.5736 4.4981C15.2544 5.6728 10.5948 8.85271 7.56663 13.3746C4.53845 17.8964 3.37556 23.4111 4.3205 28.7683C5.26544 34.1255 8.24525 38.9116 12.6384 42.1283C17.0316 45.345 22.4988 46.7439 27.8999 46.0333C33.3009 45.3227 38.2187 42.5574 41.6275 38.3142L39.9551 36.7456L35.8029 32.5996C37.2987 30.4808 38.1771 27.8964 38.1771 25.1071C38.1771 17.9168 32.3395 12.0878 25.1385 12.0878C17.9374 12.0878 12.0998 17.9168 12.0998 25.1071C12.0998 32.2975 17.9374 38.1265 25.1385 38.1265C28.6192 38.1265 31.7813 36.7646 34.1196 34.5454L38.2043 38.6241C35.3027 41.3195 31.503 43.0861 27.5791 43.6023C22.8055 44.2304 17.9733 42.994 14.0905 40.1509C10.2077 37.3079 7.5741 33.0778 6.73893 28.343C5.90377 23.6081 6.93157 18.7341 9.60796 14.7375C12.2843 10.741 16.4027 7.9305 21.1039 6.89226C25.8052 5.85403 30.7264 6.66823 34.841 9.16503C38.9557 11.6618 41.9461 15.6485 43.1885 20.2934C44.431 24.9383 43.8295 29.8828 41.5095 34.0957L43.4123 35.7593ZM35.6089 25.1071C35.6089 30.8812 30.9211 35.562 25.1385 35.562C19.3558 35.562 14.6681 30.8812 14.6681 25.1071C14.6681 19.3331 19.3558 14.6522 25.1385 14.6522C30.9211 14.6522 35.6089 19.3331 35.6089 25.1071Z" fill="#FF52BA"/>
<path fill-rule="evenodd" clip-rule="evenodd" d="M40.6336 33.6133L40.2452 34.3186L43.6892 37.3297L44.2883 36.2417C47.0257 31.2708 48.0056 24.93 46.5271 19.4023C45.0546 13.8975 41.5107 9.17327 36.6351 6.21469C31.7595 3.25613 25.9284 2.29145 20.358 3.52163C14.7875 4.75182 9.90739 8.08203 6.73573 12.8181C3.56404 17.5543 2.34592 23.3305 3.3357 28.942C4.32548 34.5534 7.44662 39.5662 12.0476 42.9351C16.6486 46.304 22.3742 47.769 28.0303 47.0248C33.6865 46.2806 38.8369 43.3847 42.4071 38.9405L42.9871 38.2185L40.6506 36.0269L37.0877 32.4693C38.4124 30.3293 39.1771 27.8062 39.1771 25.1071C39.1771 17.3631 32.8904 11.0878 25.1385 11.0878C17.3866 11.0878 11.0998 17.3631 11.0998 25.1071C11.0998 32.8512 17.3866 39.1265 25.1385 39.1265C28.5344 39.1265 31.6503 37.9213 34.0781 35.9171L36.741 38.576C34.1092 40.7433 30.8262 42.1665 27.4487 42.6109C22.9301 43.2054 18.3563 42.035 14.6813 39.3441C11.0064 36.6533 8.51406 32.6499 7.72373 28.1693C6.93341 23.6886 7.90598 19.0762 10.4389 15.294C12.9718 11.5117 16.8696 8.85149 21.3196 7.86874C25.7696 6.88599 30.4277 7.65671 34.3222 10.0199C38.2167 12.3832 41.0467 16.1562 42.2225 20.5518C43.3982 24.9473 42.8291 29.6264 40.6336 33.6133ZM35.803 32.5996L39.9551 36.7456L41.6275 38.3143C38.2187 42.5575 33.3009 45.3227 27.8999 46.0333C22.4988 46.744 17.0316 45.345 12.6384 42.1283C8.24525 38.9116 5.26544 34.1255 4.3205 28.7683C3.37556 23.4111 4.53845 17.8964 7.56663 13.3746C10.5948 8.85271 15.2544 5.67281 20.5736 4.4981C25.8928 3.3234 31.4608 4.24462 36.1163 7.0696C40.7718 9.89459 44.1553 14.4052 45.561 19.6606C46.8784 24.5859 46.1448 30.2324 43.8869 34.8459C43.7355 35.1552 43.5773 35.4598 43.4123 35.7593L41.5095 34.0957C43.8295 29.8828 44.431 24.9383 43.1885 20.2934C41.9461 15.6485 38.9557 11.6618 34.841 9.16503C30.7264 6.66823 25.8052 5.85403 21.1039 6.89227C16.4027 7.9305 12.2843 10.741 9.60796 14.7376C6.93157 18.7341 5.90377 23.6081 6.73893 28.343C7.5741 33.0778 10.2077 37.3079 14.0905 40.1509C17.9733 42.994 22.8055 44.2304 27.5791 43.6023C31.1722 43.1296 34.6611 41.6085 37.4518 39.2858C37.7087 39.0719 37.9597 38.8513 38.2043 38.6241L34.1196 34.5454C31.7813 36.7646 28.6192 38.1265 25.1385 38.1265C17.9374 38.1265 12.0998 32.2975 12.0998 25.1071C12.0998 17.9168 17.9374 12.0878 25.1385 12.0878C32.3395 12.0878 38.1771 17.9168 38.1771 25.1071C38.1771 27.8964 37.2987 30.4808 35.803 32.5996Z" fill="#FF52BA"/>
</svg>
